{"title":"3.34.Terremoto.en.Chile.2011.DVDRip.XViD-aBrAx","uid":7001608,"size":1482035200,"categoryP":"video","categoryS":"movies","magnet":"?xt=urn:btih:0c741c0ff070b93c2c30b6019e152b9aacf4bfd6&amp;dn=3.34.Terremoto.en.Chile.2011.DVDRip.XViD-aBrAx&amp;tr=udp%3A%2F%2Ftracker.openbittorrent.com%3A80&amp;tr=udp%3A%2F%2Fopen.demonii.com%3A1337&amp;tr=udp%3A%2F%2Ftracker.coppersurfer.tk%3A6969&amp;tr=udp%3A%2F%2Fexodus.desync.com%3A6969","seeders":0,"leechers":3,"uploader":null,"files":1,"time":1328084978,"description":"General\nComplete name                            : G:\\3.34.Terremoto.en.Chile.2011.DVDRip.XViD-aBrAx\\3.34.Terremoto.en.Chile.2011.DVDRip.XViD-aBrAx.avi\nFormat                                   : AVI\nFormat/Info                              : Audio Video Interleave\nFile size                                : 1.38 GiB\nDuration                                 : 1h 40mn\nOverall bit rate                         : 1 967 Kbps\nWriting application                      : VirtualDubMod 1.5.10.2 (build 2540/release)\nWriting library                          : VirtualDubMod build 2540/release\n\nVideo\nID                                       : 0\nFormat                                   : MPEG-4 Visual\nFormat profile                           : Advanced Simple@L5\nFormat settings, BVOP                    : 2\nFormat settings, QPel                    : No\nFormat settings, GMC                     : No warppoints\nFormat settings, Matrix                  : Default (H.263)\nMuxing mode                              : Packed bitstream\nCodec ID                                 : XVID\nCodec ID/Hint                            : XviD\nDuration                                 : 1h 40mn\nBit rate                                 : 1 509 Kbps\nWidth                                    : 720 pixels\nHeight                                   : 362 pixels\nDisplay aspect ratio                     : 1.989\nFrame rate                               : 23.976 fps\nOriginal frame rate                      : 24.000 fps\nColor space                              : YUV\nChroma subsampling                       : 4:2:0\nBit depth                                : 8 bits\nScan type                                : Progressive\nCompression mode                         : Lossy\nBits/(Pixel*Frame)                       : 0.242\nStream size                              : 1.06 GiB (77%)\nWriting library                          : XviD 64\n\nAudio\nID                                       : 1\nFormat                                   : AC-3\nFormat/Info                              : Audio Coding 3\nMode extension                           : CM (complete main)\nCodec ID                                 : 2000\nDuration                                 : 1h 40mn\nBit rate mode                            : Constant\nBit rate                                 : 448 Kbps\nChannel(s)                               : 6 channels\nChannel positions                        : Front: L C R, Side: L R, LFE\nSampling rate                            : 48.0 KHz\nBit depth                                : 16 bits\nCompression mode                         : Lossy\nStream size                              : 322 MiB (23%)\nAlignment                                : Split accross interleaves\nInterleave, duration                     : 42 ms (1.00 video frame)\nInterleave, preload duration             : 500 ms\n\n","torrent":{"xt":"urn:btih:0c741c0ff070b93c2c30b6019e152b9aacf4bfd6","amp;dn":"3.34.Terremoto.en.Chile.2011.DVDRip.XViD-aBrAx","amp;tr":["udp%3A%2F%2Ftracker.openbittorrent.com%3A80","udp%3A%2F%2Fopen.demonii.com%3A1337","udp%3A%2F%2Ftracker.coppersurfer.tk%3A6969","udp%3A%2F%2Fexodus.desync.com%3A6969"],"infoHash":"0c741c0ff070b93c2c30b6019e152b9aacf4bfd6","infoHashBuffer":{"type":"Buffer","data":[12,116,28,15,240,112,185,60,44,48,182,1,158,21,43,154,172,244,191,214]},"announce":[],"urlList":[]}}